<svg width="18" height="18" viewBox="0 0 18 18" fill="none" xmlns="http://www.w3.org/2000/svg">
<path d="M6.43456 3.47362C6.43456 3.36141 6.45014 3.11909 6.48131 2.74819C6.51481 2.37652 6.65507 1.98771 6.90674 1.57941C7.15608 1.17268 7.56048 0.807238 8.12305 0.483875C8.68329 0.162071 9.49286 0 10.5494 0H13.5259V3.24376H11.3466C11.1307 3.24376 10.9297 3.32479 10.7481 3.48452C10.5681 3.64426 10.4754 3.7962 10.4754 3.93723V5.95533H13.5252C13.4932 6.35037 13.4581 6.73451 13.4176 7.10541L13.2969 8.08562C13.2485 8.41678 13.1995 8.72378 13.1511 9.00662H10.4536V18H6.43456V9.00584H4.47412V5.95533H6.43456V3.47362Z" fill="white"/>
</svg>
