<svg width="26" height="26" viewBox="0 0 26 26" fill="none" xmlns="http://www.w3.org/2000/svg">
<path d="M13.9533 5.47081C17.3983 5.90414 20.0958 8.60164 20.5292 12.0466C20.5942 12.5991 21.06 13 21.6017 13C21.645 13 21.6883 13 21.7317 12.9891C22.3275 12.9133 22.75 12.3716 22.6742 11.7758C22.4079 9.62453 21.4309 7.62378 19.8981 6.091C18.3654 4.55821 16.3646 3.5812 14.2133 3.31497C13.6175 3.24997 13.0758 3.67247 13.0108 4.2683C12.935 4.86414 13.3575 5.40581 13.9533 5.47081V5.47081ZM14.365 7.75664C13.7908 7.60497 13.195 7.95164 13.0433 8.53664C12.8917 9.12164 13.2383 9.70664 13.8233 9.85831C14.3839 10.0038 14.8954 10.2965 15.3049 10.706C15.7144 11.1154 16.007 11.6269 16.1525 12.1875C16.2247 12.466 16.4043 12.7045 16.6521 12.8507C16.8998 12.9969 17.1955 13.0389 17.4742 12.9675C18.0483 12.8158 18.395 12.22 18.2542 11.6458C18.0103 10.7103 17.5214 9.8567 16.8377 9.17307C16.1541 8.48945 15.3005 8.0005 14.365 7.75664V7.75664ZM20.8325 16.5316L18.0808 16.2175C17.7573 16.1795 17.4293 16.2153 17.1216 16.3222C16.8139 16.4292 16.5344 16.6045 16.3042 16.835L14.3108 18.8283C11.2354 17.2642 8.73575 14.7645 7.17165 11.6891L9.17582 9.68497C9.64166 9.21914 9.86916 8.56914 9.79332 7.9083L9.47916 5.17831C9.41774 4.64983 9.16412 4.16239 8.76658 3.80881C8.36904 3.45522 7.85536 3.26017 7.32332 3.2608H5.44915C4.22498 3.2608 3.20665 4.27914 3.28248 5.5033C3.85665 14.755 11.2558 22.1433 20.4967 22.7175C21.7208 22.7933 22.7392 21.775 22.7392 20.5508V18.6766C22.75 17.5825 21.9267 16.6616 20.8325 16.5316V16.5316Z" fill="white"/>
</svg>
