<svg width="26" height="26" viewBox="0 0 26 26" fill="none" xmlns="http://www.w3.org/2000/svg">
<path d="M21.2399 7.5779C21.1575 7.25506 20.9235 7.01131 20.6559 6.93656C20.1825 6.80331 17.875 6.49998 13 6.49998C8.12502 6.49998 5.81969 6.80331 5.34194 6.93656C5.0776 7.01023 4.8436 7.25398 4.76019 7.5779C4.6421 8.03723 4.33335 9.96231 4.33335 13C4.33335 16.0376 4.6421 17.9616 4.76019 18.4231C4.84252 18.7449 5.07652 18.9886 5.34302 19.0623C5.81969 19.1966 8.12502 19.5 13 19.5C17.875 19.5 20.1814 19.1966 20.6581 19.0634C20.9224 18.9897 21.1564 18.746 21.2399 18.4221C21.3579 17.9627 21.6667 16.0333 21.6667 13C21.6667 9.96665 21.3579 8.03831 21.2399 7.5779ZM23.3383 7.03948C23.8334 8.96998 23.8334 13 23.8334 13C23.8334 13 23.8334 17.03 23.3383 18.9605C23.0631 20.0276 22.2582 20.8671 21.2388 21.151C19.3874 21.6666 13 21.6666 13 21.6666C13 21.6666 6.61594 21.6666 4.76127 21.151C3.73752 20.8628 2.93369 20.0243 2.66177 18.9605C2.16669 17.03 2.16669 13 2.16669 13C2.16669 13 2.16669 8.96998 2.66177 7.03948C2.93694 5.9724 3.74185 5.13281 4.76127 4.84898C6.61594 4.33331 13 4.33331 13 4.33331C13 4.33331 19.3874 4.33331 21.2388 4.84898C22.2625 5.13715 23.0664 5.97565 23.3383 7.03948ZM10.8334 16.7916V9.20831L17.3334 13L10.8334 16.7916Z" fill="white"/>
</svg>
